<?xml version="1.0" encoding="utf-8"?>
<!-- Generator: Adobe Illustrator 22.0.1, SVG Export Plug-In . SVG Version: 6.00 Build 0)  -->
<svg version="1.1" id="Layer_1" xmlns="http://www.w3.org/2000/svg" xmlns:xlink="http://www.w3.org/1999/xlink" x="0px" y="0px"
	 viewBox="0 0 100 100" style="enable-background:new 0 0 100 100;" xml:space="preserve">
<style type="text/css">
	.st0{fill:#FFFFFF;}
</style>
<g>
	<path class="st0" d="M90.3,27.7H75.4c-0.1-0.1-0.1-0.2-0.3-0.3l-17-14.3c-0.6-0.5-1.4-0.4-1.9,0.2c-0.5,0.6-0.4,1.4,0.2,1.9
		l14.9,12.5H28.7l14.9-12.5c0.6-0.5,0.7-1.3,0.2-1.9c-0.5-0.6-1.3-0.6-1.9-0.2l-17,14.3c-0.1,0.1-0.2,0.2-0.3,0.3H9.7
		c-2.6,0-4.7,2.1-4.7,4.7v8.7c0,2.6,2.1,4.7,4.7,4.7h2.7L16,82.4c0.3,2.7,2.5,4.7,5.2,4.7h57.5c2.7,0,4.9-2,5.2-4.7l3.6-36.6h2.7
		c2.6,0,4.7-2.1,4.7-4.7v-8.7C95,29.8,92.9,27.7,90.3,27.7z M81.3,82.2c-0.1,1.3-1.2,2.3-2.5,2.3H21.2c-1.3,0-2.4-1-2.5-2.3
		l-3.6-36.3h69.8L81.3,82.2z M92.3,41.1c0,1.1-0.9,2-2,2h-3.9H13.6H9.7c-1.1,0-2-0.9-2-2v-8.7c0-1.1,0.9-2,2-2h80.6c1.1,0,2,0.9,2,2
		L92.3,41.1L92.3,41.1z"/>
	<path class="st0" d="M30.2,76c0.8,0,1.4-0.6,1.4-1.4V54.9c0-0.8-0.6-1.4-1.4-1.4c-0.8,0-1.4,0.6-1.4,1.4v19.8
		C28.9,75.4,29.5,76,30.2,76z"/>
	<path class="st0" d="M43.4,76c0.8,0,1.4-0.6,1.4-1.4V54.9c0-0.8-0.6-1.4-1.4-1.4s-1.4,0.6-1.4,1.4v19.8C42,75.4,42.7,76,43.4,76z"
		/>
	<path class="st0" d="M56.6,76c0.8,0,1.4-0.6,1.4-1.4V54.9c0-0.8-0.6-1.4-1.4-1.4c-0.8,0-1.4,0.6-1.4,1.4v19.8
		C55.2,75.4,55.8,76,56.6,76z"/>
	<path class="st0" d="M69.8,76c0.8,0,1.4-0.6,1.4-1.4V54.9c0-0.8-0.6-1.4-1.4-1.4s-1.4,0.6-1.4,1.4v19.8C68.4,75.4,69,76,69.8,76z"
		/>
</g>
</svg>
